<mxfile host="Electron" agent="Mozilla/5.0 (Windows NT 10.0; Win64; x64) AppleWebKit/537.36 (KHTML, like Gecko) draw.io/28.0.6 Chrome/138.0.7204.100 Electron/37.2.3 Safari/537.36" version="28.0.6">
  <diagram name="Page-1" id="ZJt2uwMT5Uu6G4LC-Q2c">
    <mxGraphModel dx="1950" dy="737" grid="1" gridSize="10" guides="1" tooltips="1" connect="1" arrows="1" fold="1" page="1" pageScale="1" pageWidth="827" pageHeight="1169" math="0" shadow="0">
      <root>
        <mxCell id="0" />
        <mxCell id="1" parent="0" />
        <mxCell id="vqZ_BC1BcSBBk9a7v_CW-2" value="" style="rounded=0;whiteSpace=wrap;html=1;shadow=0;" vertex="1" parent="1">
          <mxGeometry x="-50" y="10" width="1280" height="720" as="geometry" />
        </mxCell>
        <mxCell id="iIy-bxBpdwjFfo5LCLuM-1" value="High Level Architecture" style="text;html=1;align=center;verticalAlign=middle;resizable=0;points=[];autosize=1;strokeColor=none;fillColor=none;fontSize=22;fontStyle=1;shadow=1;" parent="1" vertex="1">
          <mxGeometry x="11" y="23" width="250" height="40" as="geometry" />
        </mxCell>
        <mxCell id="iIy-bxBpdwjFfo5LCLuM-2" value="" style="rounded=1;whiteSpace=wrap;html=1;dashed=1;shadow=1;fillColor=#f9f7ed;strokeColor=#36393d;" parent="1" vertex="1">
          <mxGeometry x="-10" y="110" width="170" height="570" as="geometry" />
        </mxCell>
        <mxCell id="iIy-bxBpdwjFfo5LCLuM-4" value="Sources" style="rounded=0;whiteSpace=wrap;html=1;strokeColor=none;fontSize=14;shadow=1;" parent="1" vertex="1">
          <mxGeometry x="26" y="90" width="90" height="30" as="geometry" />
        </mxCell>
        <mxCell id="iIy-bxBpdwjFfo5LCLuM-5" value="" style="rounded=1;whiteSpace=wrap;html=1;dashed=1;shadow=1;fillColor=#f9f7ed;strokeColor=#36393d;" parent="1" vertex="1">
          <mxGeometry x="199" y="110" width="761" height="570" as="geometry" />
        </mxCell>
        <mxCell id="iIy-bxBpdwjFfo5LCLuM-6" value="Data Warehouse" style="rounded=0;whiteSpace=wrap;html=1;strokeColor=none;fontSize=14;shadow=1;" parent="1" vertex="1">
          <mxGeometry x="468.5" y="90" width="141" height="30" as="geometry" />
        </mxCell>
        <mxCell id="mjdIlc3A8C2LFw_ec-ra-1" value="" style="rounded=1;whiteSpace=wrap;html=1;dashed=1;shadow=1;fillColor=#f9f7ed;strokeColor=#36393d;" parent="1" vertex="1">
          <mxGeometry x="1010" y="110" width="120" height="570" as="geometry" />
        </mxCell>
        <mxCell id="mjdIlc3A8C2LFw_ec-ra-2" value="Consume" style="rounded=0;whiteSpace=wrap;html=1;strokeColor=none;fontSize=14;shadow=1;" parent="1" vertex="1">
          <mxGeometry x="1025" y="90" width="90" height="30" as="geometry" />
        </mxCell>
        <mxCell id="mjdIlc3A8C2LFw_ec-ra-4" value="Bronze Layer" style="rounded=1;whiteSpace=wrap;html=1;fillColor=#ffe6cc;strokeColor=#d79b00;fontSize=14;fontStyle=1;shadow=1;" parent="1" vertex="1">
          <mxGeometry x="240" y="140" width="197" height="30" as="geometry" />
        </mxCell>
        <mxCell id="mjdIlc3A8C2LFw_ec-ra-5" value="" style="rounded=1;whiteSpace=wrap;html=1;fontSize=14;shadow=1;fillColor=default;strokeColor=#d79b00;" parent="1" vertex="1">
          <mxGeometry x="240" y="180" width="199.5" height="460" as="geometry" />
        </mxCell>
        <mxCell id="mjdIlc3A8C2LFw_ec-ra-6" value="Silver Layer" style="rounded=1;whiteSpace=wrap;html=1;fillColor=#f5f5f5;strokeColor=#666666;fontSize=14;fontColor=#333333;fontStyle=1;shadow=1;" parent="1" vertex="1">
          <mxGeometry x="480" y="140" width="199.5" height="30" as="geometry" />
        </mxCell>
        <mxCell id="mjdIlc3A8C2LFw_ec-ra-7" value="" style="rounded=1;whiteSpace=wrap;html=1;fontSize=14;shadow=1;fillColor=default;fontColor=#333333;strokeColor=#666666;" parent="1" vertex="1">
          <mxGeometry x="479.5" y="180" width="200" height="460" as="geometry" />
        </mxCell>
        <mxCell id="mjdIlc3A8C2LFw_ec-ra-8" value="Gold Layer" style="rounded=1;whiteSpace=wrap;html=1;fillColor=#fff2cc;strokeColor=#d6b656;fontSize=14;fontStyle=1;glass=0;shadow=1;" parent="1" vertex="1">
          <mxGeometry x="720" y="140" width="200" height="30" as="geometry" />
        </mxCell>
        <mxCell id="mjdIlc3A8C2LFw_ec-ra-9" value="" style="rounded=1;whiteSpace=wrap;html=1;fontSize=14;glass=0;shadow=1;fillColor=default;strokeColor=#d6b656;" parent="1" vertex="1">
          <mxGeometry x="720" y="180" width="200" height="460" as="geometry" />
        </mxCell>
        <mxCell id="mjdIlc3A8C2LFw_ec-ra-12" value="" style="pointerEvents=1;shadow=1;dashed=0;html=1;labelPosition=center;verticalLabelPosition=bottom;verticalAlign=top;outlineConnect=0;align=center;shape=mxgraph.office.concepts.folder;fillColor=#b0e3e6;strokeColor=#0e8088;" parent="1" vertex="1">
          <mxGeometry x="45.31" y="230" width="50" height="45" as="geometry" />
        </mxCell>
        <mxCell id="mjdIlc3A8C2LFw_ec-ra-13" value="" style="image;aspect=fixed;html=1;points=[];align=center;fontSize=12;image=img/lib/azure2/general/Media_File.svg;shadow=1;" parent="1" vertex="1">
          <mxGeometry x="75.31" y="250" width="32.51" height="40" as="geometry" />
        </mxCell>
        <mxCell id="mjdIlc3A8C2LFw_ec-ra-14" value="CRM" style="text;html=1;align=center;verticalAlign=middle;whiteSpace=wrap;rounded=0;shadow=1;" parent="1" vertex="1">
          <mxGeometry x="40.31" y="238" width="60" height="30" as="geometry" />
        </mxCell>
        <mxCell id="mjdIlc3A8C2LFw_ec-ra-15" value="" style="pointerEvents=1;shadow=1;dashed=0;html=1;strokeColor=#0e8088;labelPosition=center;verticalLabelPosition=bottom;verticalAlign=top;outlineConnect=0;align=center;shape=mxgraph.office.concepts.folder;fillColor=#b0e3e6;" parent="1" vertex="1">
          <mxGeometry x="47.18000000000001" y="401.5" width="50" height="45" as="geometry" />
        </mxCell>
        <mxCell id="mjdIlc3A8C2LFw_ec-ra-16" value="" style="image;aspect=fixed;html=1;points=[];align=center;fontSize=12;image=img/lib/azure2/general/Media_File.svg;shadow=1;" parent="1" vertex="1">
          <mxGeometry x="77.18" y="421.5" width="32.51" height="40" as="geometry" />
        </mxCell>
        <mxCell id="mjdIlc3A8C2LFw_ec-ra-17" value="ERP" style="text;html=1;align=center;verticalAlign=middle;whiteSpace=wrap;rounded=0;shadow=1;" parent="1" vertex="1">
          <mxGeometry x="42.17999999999999" y="458.5" width="60" height="30" as="geometry" />
        </mxCell>
        <mxCell id="mjdIlc3A8C2LFw_ec-ra-20" value="&lt;b&gt;Object Type:&lt;/b&gt; CSV files&lt;div&gt;&lt;br&gt;&lt;div&gt;&lt;b&gt;Interface: &lt;/b&gt;Files in Folders&lt;/div&gt;&lt;/div&gt;" style="text;html=1;align=left;verticalAlign=middle;whiteSpace=wrap;rounded=0;fontSize=12;shadow=1;" parent="1" vertex="1">
          <mxGeometry x="3.12" y="530" width="146.88" height="60" as="geometry" />
        </mxCell>
        <mxCell id="mjdIlc3A8C2LFw_ec-ra-23" value="" style="html=1;verticalLabelPosition=bottom;align=center;labelBackgroundColor=#ffffff;verticalAlign=top;strokeWidth=2;strokeColor=#d79b00;shadow=1;dashed=0;shape=mxgraph.ios7.icons.data;fillColor=#ffe6cc;" parent="1" vertex="1">
          <mxGeometry x="319.75" y="228" width="40" height="50" as="geometry" />
        </mxCell>
        <mxCell id="mjdIlc3A8C2LFw_ec-ra-24" value="" style="html=1;verticalLabelPosition=bottom;align=center;labelBackgroundColor=#ffffff;verticalAlign=top;strokeWidth=2;strokeColor=#666666;shadow=1;dashed=0;shape=mxgraph.ios7.icons.data;fillColor=#f5f5f5;fontColor=#333333;" parent="1" vertex="1">
          <mxGeometry x="559.75" y="228" width="40" height="50" as="geometry" />
        </mxCell>
        <mxCell id="mjdIlc3A8C2LFw_ec-ra-25" value="" style="html=1;verticalLabelPosition=bottom;align=center;labelBackgroundColor=#ffffff;verticalAlign=top;strokeWidth=2;strokeColor=#d6b656;shadow=1;dashed=0;shape=mxgraph.ios7.icons.data;fillColor=#fff2cc;" parent="1" vertex="1">
          <mxGeometry x="800" y="236" width="40" height="50" as="geometry" />
        </mxCell>
        <mxCell id="mjdIlc3A8C2LFw_ec-ra-26" value="" style="shape=flexArrow;endArrow=classic;html=1;rounded=0;entryX=0.015;entryY=0.307;entryDx=0;entryDy=0;entryPerimeter=0;fillColor=#bac8d3;strokeColor=#23445d;shadow=1;" parent="1" edge="1">
          <mxGeometry width="50" height="50" relative="1" as="geometry">
            <mxPoint x="150" y="270" as="sourcePoint" />
            <mxPoint x="225.29999999999995" y="270.22" as="targetPoint" />
          </mxGeometry>
        </mxCell>
        <mxCell id="mjdIlc3A8C2LFw_ec-ra-27" value="" style="shape=flexArrow;endArrow=classic;html=1;rounded=0;entryX=0.015;entryY=0.307;entryDx=0;entryDy=0;entryPerimeter=0;fillColor=#bac8d3;strokeColor=#23445d;shadow=1;" parent="1" edge="1">
          <mxGeometry width="50" height="50" relative="1" as="geometry">
            <mxPoint x="430" y="268" as="sourcePoint" />
            <mxPoint x="495.29999999999995" y="268.22" as="targetPoint" />
          </mxGeometry>
        </mxCell>
        <mxCell id="mjdIlc3A8C2LFw_ec-ra-28" value="" style="shape=flexArrow;endArrow=classic;html=1;rounded=0;entryX=0.015;entryY=0.307;entryDx=0;entryDy=0;entryPerimeter=0;fillColor=#bac8d3;strokeColor=#23445d;shadow=1;" parent="1" edge="1">
          <mxGeometry width="50" height="50" relative="1" as="geometry">
            <mxPoint x="670" y="268" as="sourcePoint" />
            <mxPoint x="735.3" y="268.22" as="targetPoint" />
          </mxGeometry>
        </mxCell>
        <mxCell id="mjdIlc3A8C2LFw_ec-ra-29" value="" style="shape=flexArrow;endArrow=classic;html=1;rounded=0;entryX=0.015;entryY=0.307;entryDx=0;entryDy=0;entryPerimeter=0;fillColor=#bac8d3;strokeColor=#23445d;shadow=1;" parent="1" edge="1">
          <mxGeometry width="50" height="50" relative="1" as="geometry">
            <mxPoint x="950" y="278" as="sourcePoint" />
            <mxPoint x="1025.3" y="278.22" as="targetPoint" />
          </mxGeometry>
        </mxCell>
        <mxCell id="mjdIlc3A8C2LFw_ec-ra-30" value="raw data" style="text;html=1;align=center;verticalAlign=middle;whiteSpace=wrap;rounded=0;shadow=1;" parent="1" vertex="1">
          <mxGeometry x="309.75" y="286" width="60" height="30" as="geometry" />
        </mxCell>
        <mxCell id="mjdIlc3A8C2LFw_ec-ra-31" value="cleaned, standardized data" style="text;html=1;align=center;verticalAlign=middle;whiteSpace=wrap;rounded=0;shadow=1;" parent="1" vertex="1">
          <mxGeometry x="549.5" y="301" width="60" height="30" as="geometry" />
        </mxCell>
        <mxCell id="mjdIlc3A8C2LFw_ec-ra-32" value="Business-Ready Data" style="text;html=1;align=center;verticalAlign=middle;whiteSpace=wrap;rounded=0;shadow=1;" parent="1" vertex="1">
          <mxGeometry x="790" y="301" width="70" height="30" as="geometry" />
        </mxCell>
        <mxCell id="mjdIlc3A8C2LFw_ec-ra-33" value="Object Type: Table&lt;div&gt;&lt;br&gt;&lt;div&gt;Load:&lt;/div&gt;&lt;div&gt;&lt;ul&gt;&lt;li&gt;Batch processing&lt;/li&gt;&lt;li&gt;Full load&lt;/li&gt;&lt;li&gt;Truncate &amp;amp; Insert&lt;/li&gt;&lt;/ul&gt;&lt;div&gt;No Transformations&lt;/div&gt;&lt;/div&gt;&lt;/div&gt;&lt;div&gt;&lt;br&gt;&lt;/div&gt;&lt;div&gt;Data Model: None (as-is)&lt;/div&gt;" style="text;html=1;align=left;verticalAlign=top;whiteSpace=wrap;rounded=0;shadow=1;" parent="1" vertex="1">
          <mxGeometry x="250" y="359.5" width="180" height="200" as="geometry" />
        </mxCell>
        <mxCell id="mjdIlc3A8C2LFw_ec-ra-36" value="Object Type: Table&lt;div&gt;&lt;br&gt;&lt;div&gt;Load:&lt;/div&gt;&lt;div&gt;&lt;ul&gt;&lt;li&gt;Batch processing&lt;/li&gt;&lt;li&gt;Full load&lt;/li&gt;&lt;li&gt;Truncate &amp;amp; insert&lt;/li&gt;&lt;/ul&gt;&lt;div&gt;Transformations:&lt;/div&gt;&lt;/div&gt;&lt;/div&gt;&lt;div&gt;&lt;ul&gt;&lt;li&gt;Data cleansing&lt;/li&gt;&lt;li&gt;Data Standarization&lt;/li&gt;&lt;li&gt;Data Normalization&lt;/li&gt;&lt;li&gt;Derived Colunms&lt;/li&gt;&lt;li&gt;Data Enrichment&lt;/li&gt;&lt;/ul&gt;&lt;/div&gt;&lt;div&gt;&lt;br&gt;&lt;/div&gt;&lt;div&gt;Data Model: None (as-is)&lt;/div&gt;" style="text;html=1;align=left;verticalAlign=top;whiteSpace=wrap;rounded=0;shadow=1;" parent="1" vertex="1">
          <mxGeometry x="492.5" y="359.5" width="180" height="270.5" as="geometry" />
        </mxCell>
        <mxCell id="mjdIlc3A8C2LFw_ec-ra-37" value="Object Type: Views&lt;div&gt;&lt;br&gt;&lt;div&gt;No Load&lt;/div&gt;&lt;div&gt;&lt;br&gt;&lt;/div&gt;&lt;div&gt;&lt;div&gt;Transformations:&lt;/div&gt;&lt;/div&gt;&lt;/div&gt;&lt;div&gt;&lt;ul&gt;&lt;li&gt;Data integration&lt;/li&gt;&lt;li&gt;Aggregations&lt;/li&gt;&lt;li&gt;Business Logics&lt;/li&gt;&lt;/ul&gt;&lt;/div&gt;&lt;div&gt;&lt;br&gt;&lt;/div&gt;&lt;div&gt;Data Model:&amp;nbsp;&lt;/div&gt;&lt;div&gt;&lt;ul&gt;&lt;li&gt;Star Schema&lt;/li&gt;&lt;li&gt;Flat Table&lt;/li&gt;&lt;li&gt;Aggregated Table&lt;/li&gt;&lt;/ul&gt;&lt;/div&gt;" style="text;html=1;align=left;verticalAlign=top;whiteSpace=wrap;rounded=0;shadow=1;" parent="1" vertex="1">
          <mxGeometry x="730" y="359.5" width="180" height="270.5" as="geometry" />
        </mxCell>
        <mxCell id="mjdIlc3A8C2LFw_ec-ra-41" value="" style="points=[];aspect=fixed;html=1;align=center;shadow=1;dashed=0;fillColor=#b1ddf0;strokeColor=#10739e;shape=mxgraph.alibaba_cloud.machine_learning;" parent="1" vertex="1">
          <mxGeometry x="1045.1" y="448.45" width="49.8" height="50.099999999999994" as="geometry" />
        </mxCell>
        <mxCell id="mjdIlc3A8C2LFw_ec-ra-42" value="Machine Learning" style="text;html=1;align=center;verticalAlign=middle;whiteSpace=wrap;rounded=0;shadow=1;" parent="1" vertex="1">
          <mxGeometry x="1040" y="510" width="60" height="30" as="geometry" />
        </mxCell>
        <mxCell id="mjdIlc3A8C2LFw_ec-ra-51" value="" style="shadow=1;dashed=0;html=1;strokeColor=none;fillColor=#4495D1;labelPosition=center;verticalLabelPosition=bottom;verticalAlign=top;align=center;outlineConnect=0;shape=mxgraph.veeam.magnifying_glass;pointerEvents=1;" parent="1" vertex="1">
          <mxGeometry x="1047.9" y="331" width="52.1" height="49" as="geometry" />
        </mxCell>
        <mxCell id="mjdIlc3A8C2LFw_ec-ra-52" value="BI &amp;amp; Tableau" style="text;html=1;align=center;verticalAlign=middle;whiteSpace=wrap;rounded=0;shadow=1;" parent="1" vertex="1">
          <mxGeometry x="1034.9" y="238" width="75.1" height="30" as="geometry" />
        </mxCell>
        <mxCell id="mjdIlc3A8C2LFw_ec-ra-53" value="Ad-Hoc&lt;div&gt;SQL Queries&lt;/div&gt;" style="text;html=1;align=center;verticalAlign=middle;whiteSpace=wrap;rounded=0;shadow=1;" parent="1" vertex="1">
          <mxGeometry x="1030.93" y="380" width="86.05" height="30" as="geometry" />
        </mxCell>
        <mxCell id="mjdIlc3A8C2LFw_ec-ra-57" value="" style="shape=image;verticalLabelPosition=bottom;labelBackgroundColor=default;verticalAlign=top;aspect=fixed;imageAspect=0;image=data:image/png,iVBORw0KGgoAAAANSUhEUgAAAGQAAABkCAYAAABw4pVUAAAAAXNSR0IArs4c6QAAFpJJREFUeAHtXQuYHEWdj098nSIHhHRVzy4hHBA55CGHcnIGUNE7L4BAeMjjDkEeciiPoHcfQngJiAoiopx4KnABAiSHyXbP5LUEkkDITvdsyE5XT1VvSALhLSQEyHsuv+r6T2o7M7MbPz9ld2e/b7/qrldP//5V//o/qv49YkTrr4VAC4EWAi0EWgi0EGgh0EJgGCPQlSSfKEXymDCSk0qxun0YQ/HXefWnpPx4dyT/tSTUz4pCPhNEcnMoVFX/R6rnr/OrhtlTn1HKLUXqopKozA6F2lgjABFCqOeRFwi1bJhB85d73e7u7o+WRHJ2KVZPBpHc0pcI8tlQyP8JYnlGIIRT7FFjUoIka/9yv3CYPCmsVA4My/LOMFKrLSJsLIqkUIrUeV1S7pWFYunSpR+jul1xvGu2vHX/JyCwJEr+PohkRMDqNKo8HUbqW4ui6G/765IIWIzUIf3VbZU3QWBKtfq+ME6urrc2BEKtCKPK1DCS/wVJqhlhQqEWgoilKPl6k8e1ipoh0NXV9YFQJA9Zs2KBdZ1KTtsWbn0fCPnHIJLzIWVh9pTi5PMLV678cCDUr1KCyGuaPbNV1gSBoNRzlQHxnSBKTkDVYqx+i7wgki+FsTquFMtLwlhNDoWs9BFx+xIKktcq3ZdIZjd5ZKuoEQLVSZPeO+e449cF3T3VUqxOpnpYoAMhY4CLhRwszS4rluVnMTPCKLkjEOrxMJJvoC79B6LyVmdn5/upTSsdIAIgiN/WVp17wonV+fff/xm7mZa0hHxLgxyrG+yy7HUpVseXIvkO6gaR1DoK2Fi2Xut+AAgUDjzoLZ/zauGQQzbO2n//r08aMeK91Kwk5AToH/gvieTfKZ/SpUuXfjCMkx+SjhIIlS/1yIfNTLmZ6rXSHUBg5rijzgFB6L+D816f81t8xo7u3G23jwVCXacBjuQmW3oKhfrHMKp0G/CrQax+DjaF2WLyVrXY1g4Qwq5aGD36ThDE43wLEcakm3zOu+eedEq88PY7qosenbF+8bwnvh2W1f8RIfRCHif/TP11Llv2oVCoV1EO4lB+K90BBDpHjHi/x/l0Q4TVHZw/4nG+PEOc2iyaefDB1Tnjj90yZ8Ip5cIBB1zuMXZUvq1tFD0yFOp6EKQYqaBardZYIJW30gEgMN1xPuJxvhBE8Bh73nPdvQqO4+Y5P81n7Cc+53Pye++9rhGRTLuNPucrCvvsM+XxK3+w4cm77q7O/8mt/4m+B/ATWlWyCMwaPfoTnusWNbicL5/lOLlsnc5x49r1jGDs/Lzr3uoztsBnrCmhTH8rPMZm+q770zzn53Rwftiju+76N9n+W/cZBGbvuedIj3NhZkLQ2d7+oUwVfTtlxIj3eYxd63GOWQF29lYH5yV9zZjKt7Xd4++77xKf81dMeY3l2fceY8s8xqZ7jvO/Bcc5GYJEvecN6zywKo+xFwFcnvP/zoLR0d6+h8/53BqwrjsFbQojR+5Os2XGqFH7UbsZudwnMSM81z3bY+zHPucFn/OVtfaWlOdzrgWJDtf9le+6p053nJblGED6nI8DOJC8wKII3LzrHuExtkqDydgffdc9hcqQknCQ5/wKO9++BqvyOf++t/3sWVOHSJs7GFvkue7lILrdz7C71mtEKg6LrkMO+YDH2Ik0AzzHWVpoa9szC4rP2CUG1IeyZVA6sX54nL9EwHuMPeNx/ibu84xNwOzLu+6xHZz/CCzQFsXN4JiZZ+xfbAU2+5whe++NGfNx33Fe0GBx/hvDTqq+4/goq/fiec6/YsDutssLjnO4x1gXEcLnPIYEl8/lPoU8j7ENec53sdvgeqbrOp7rXtDB+eM+55v7tHfdbw+7NQesxQIByiNG9/GzGavrsMoz9mldn7HnAKi3xx67+ZzfSyPdY+w1AAzdR5czdq2u7zh+lhjZe7+9vd3j/GaP81drv4mxNdCbZu+++8hs/SF5jwXZ53x9DQCzABuAe/KM3YlZ4Y0ZsxMAqBGE81fynJ9gsadNnuv+0iZkdcSI9/iMKfSdZ+yM/gCcMnbsBz3Ov5DP5a4Bq/MZq80Yj7E1YIeQ/vrrZ9CXe5w/DNA8x8n7jnOfEYtrYBhirfZd98Gt11fruoytNfnVDs4jSFlZILAW6Lqcv0QE3a4O57v4nJ9u+l5NfTZKNaE4H5ftZ0jde4ydqQFwnMX0YlhDCox9zeP85x7nlQYAbfY4v20K5x+mdnbqcz4b7aDP2PmYlVsluW9tnQ2dlp5DeszLIE6esfN9zu9B+zznoe+6F4Id6v5gk3Oc24eshWA650wDzth6sA0bPLoGqzILLwGXpo6zGATNzoAOxg40xNiAhRtSnO+64/VszGj+GnDOr/Yc5yCwOTyzY9SoNiijmiCMTUAedBaf87ut9UpCmKDfOKRSGn0F190/+2IwLPqMPaaJtk3J6yFx1gD/fJ7zi4igHmOP6nzOp+UZu95aazQhzai/FAt59nm4NywMdRcQkaheIZf7ks/Yc6b/jR7n36OyIZP6rjtfA55RBDEzyDLsMfYOSUBY6GEbg14C84humxLrWUMAmPq3eKlmrokAo2ae85vqEd0GEr4a09/mQi5Xd8sRRGhSUk3du2gw2H0N2mss5vrFGLuEXgJSFLENLS0xdhLqYGbYNjCtVLru2SRRGYBSIqQ+mNlQOlGP+m6UAmgyu2D9alQP+VAefc4nEQvzOe9otJ416+ddWQbx1oB9FVgE2IClqHUY8fhGDbbrTrFfwmjop23VxMs2MXCd59zbEauvz/lD5ndUBrpoGxcCie5zCiNHftT+fYPyGgqZBpCxW2GZNaDAznUtANc6gjFIeq57HF5Sj1DXPTVDCC0uG61dX8NtPJDFd+vM+KZ57kafsc/tCJDagmCEBbAyUkx3pI93Vd2t0/4qA8bzOmVsg++6/0Y/EkoZ8gEulDPfdY+B+xd5pv4bJIV5nK/ArIChEiYU6s/j/D+ov2zqu+6hWKNQt5nhMtvOvsdAqYnRjjO4z7HkOb+NwPU5X+257pfpZcGXSarJu+7vtSPKIgT4uN/ePo7AgPGQ2mrLL2P3U98wu2e1bSPFkdQ0PStVUV/NUlgIoJz6jjOVnuVzPni3vPYZ7akieDpJLWY90TOBXlZLXK57g1byxozZyWjQmEGP1AMOs8MyXk6lvjWxOX8S/cLCDMmtXnvkQSiAhAY/Sgdj1/kgtOMszjP2Ov0uO4WoXc+g2aj/d1W+tQ7AgUQS0vLpnH+DdBQrf7ptmvc5Txd7zldDyWz0YlAMfcbeRj95zqdBmSSzDTyP8PNTW60Euu4xYF8wXmpvJWO0cPcZHOjPSForwTYxi7X0xdiZUEqpz0GTahN4Kp5unp3LjQUI0BmIAJQaF24fO5LH2Gdp5Oddd7vNdlkQ4AwjoviMJRpMrB2MnQedpoPzyfXEZ/oNHmNvQFmEp9Pn/GK9mDvOPllLQfa5g+peg5GOsoX44dAxPMe52WesNluyIxj1IF6Sfx4jfaAvPYOxs7xtvg8okPZzaHYiPzYS30StiNbZlDHQZw6qeh2uO0uPQNe9EuIprLc0InWajkoAFduOK7ASlGM22Wb37MuD/cBbCF0H64SlyNVYj9b2U2vyRMyiZmtJtv8hdZ8fNepgAASPHiy32dGqAczlxhILA6gAgGaVrs/Y0TYo0AFg8oAwkN9rr8d9191uBhh2dZe2NDewZ9l9DptrMgL6jNW284A4Zoasod0lNfsSY+vBPmo6g+v+AGBBdPU4P9d33T94nNd8Jbof18VM6MaOFPhIprW37zxsAN6RF/Vzuc/b7AMLpiEQ/BxbfMZOsvsjnznpGz5j8/Ou+wOfsaftfjQb43yFn8v9buEdd64vPrW4uqRSGW331brOIACpxGes5rvOO848n7GzaNcJRNlMkxEdnP/MzJyq196e3bi92RBsEtgVKXc4God9wEGUnJrtr3VvIWDpDtUC5zfCoWREyioULgIUTWbkcqONVbVGQBAmv9eY6txTTt38xJVXzX/y17/tIw7To0qx+rHZSX8b5bXSDAJadiex03Uv1D4PMhzCrTpmzE4QfcGyIIHZ7Aji6qwjjliz8PZfVItdwQoDdnpYNJJzQiGPtXfEhyL5hq4TJfMyP6N1CwTMVhs90sGCOlz3M+R0wu54SF0+53f4nNu7DDfBjA6ThTnkkxIiTg7VR+NidRcdeTPsqbckku/19KzcpbtSOUznCbWiRYEMApBuyOYED6F2hRrgtenEdf3MbMCmbBgOa25WfcwtkpsAMqIE0SO6ys+O0qexIvWKnhFpXJQ3SyK5OyWS3Cyl1FuJqM2wTg0L0n5xmMe3egIn+sY25JnNBEZE3TJ3wsnVpyY/uGHJkuWfzIKGaBAAuCTkC9ky3OM8exirc4NYLSXCUFrqkZ+q12bY5ZkTVOneK8Ze9zifRtISpfm9994y77wLqvOvueZkBKPRoEfqoixYkJYMwI9ly+z7arX6niBO9Bn5GkHi3n43y9l9DMlrECPP2AMaeMbWeZzrvbxECPg5Zo0bd0sQLEHopTfBVoJYnQIQg0itxJlCGxjrONt2xxioHlhZKJJfUBCCkjBHqmPVZyc91R82qfbsmc0LHmOpsmdM63BC5V33MvgjwljdoEdxVJkKcHRsFCEryMPibAOGo9GaWCI5386nawQ+0/FT0jPtW8JY3dUdx+kh0lidS/WGXQpi2L5xmhFay3ac28l4B9YSlpXSIFsjOIiTo/UZdqHWByLRQQcgzgZCvp7W7f20DWpQ7m0LRPIHlOEfkegQEQJ1QqF+rdtE6jK7zbC51tty2tr6rBN5163OPPLIldkTS0WhvpICLF+EBGWDRBKSJtiyZTt3l9X+GvBIraZwHGmYDnVdGMm3UQbxtyTUlQh6Q30hREfaTk6ivGGTwjVa2G+/RTQj/Fyu2nnGmesWdz5RRaCZLBChqHRosOqE10DsRYx0lAdluSiI1WW4RnwUzBZEf6CANGm+mtstevfZ7hmGICWh+uzxzdYbcvcQbQtjx67yYV113eqc8eM3PHXfAzdqQCO5OSvGQqnTYTMiuQkspx4gYbSsPRRyOfoIhVqj07L0cEbd5GFWRIGQ4+u1Rx7NEMycRnWGXP6siy/OzTr6i/ogZ+eJE6oLH3i4gFB8pCmHdaKJUsSGUlS5vxkg3ULsGUYVSQSgFOGdApFc0F+IjZJQvzRtGp5LbPb8QVf22IUXH1k48KANc8YfV1009VEswhfQS5Si5GsajIwtKYzU4SaozIZ6MRapPVJE/jHRSq0QTfKFUo+cAKHArlvvOo3FhRmWfLde+ZDKm3fpFePnnDTh7UWTH6yCtZSkPMh+QUhL6eiUtbMfGNGBSEJDqDvs+nSdKnbqqzpelhUrSwc5M5JW2l4lOnxgpXKgbVSkfpCSqFwv4pBdb9Bfd3UUDls0dZqOLBoIuaQUx9ttwbEko1doNIci+Q7AhCL4zDO9fc7u6eijsbwwLKtySki9dtTi+ELPwGJvYjjqIDRULxDytbAsvTBKfhqiDyFPCirJF8Oy1H1Bohv0oDd6AcTSJQUsFGqBbeiz22DUUkQ4RBOFEZCii4ZC1Xg6FniEEae6mmCxfLEUyWtgm0oJKF+zRWNo9Rr0WD2COI1EmEZpEPfVXezfOaivTYikLv3ikeqBmbvZC5VEGnQMMa+In0NK6lq6NFeK5aV2XCz0qSWoSJ1F1lliOcVINTSXQC+BAhkI+c1QyFsDkazNEqZbqd2b/c5BWwZ53hDjla6lyXYBZLIvhkXZgJOyHsRyj1U32ZpQpgGM1eSgUvknuz0iWlM90rzt8uw1WBTYZ40Y5URbATDzsnWHxH2xUtkvEGp9+sKyzyaE7AtizeiKl+0bxOrMIJJv1kAyizT60eaOKDkNYcez7XFPLthAqGK9csorCXUklEd6RhCp57TiGKvjTJ7ehEf1h0xK5owglnOgtEGhK4reA7rj3iNM+L2JMOgFkZxDdicCiVJt3ojUef2xujRWr3xNt4vlOfVATIWGZAr1jZkWCHmTEEKHZtJrUGqkvLte+0GdBwmoSNpyH1E0NegRKHYKSSog46GeEWZ2xXI6+msGCEljcEaBOHZdEAIKJbEzHTW7LO/MSm1kcAyEuthuPySuw3LvlzTYkdqkpZpIvp0a8+QLRkxdgEUbjiHE6YVUU+wRR4VCbUA7BNqH6Fnzf5eVahTuFSM8jNTLhrgTCcDusjwYocmJEDqN1WSwRqpDaarLyBfRB1mMqWxIpKlsr6oAZCAvhAVfR6/WxNhmHgnj5FAKpJwCWvldt5Tc7hNf0zHEeNUQ53CtY9DMjOSmopD31SME9YP1zhBjbX/mFWozqFI4i/CCJaHu6e+Ha9+2UFo0htSTXbRxj1juFJM3FPItLODQbyCeEmsMhPxNIFSnIQ5MJxvx/FKU/F1/vyEQyfnp760MzdDkYZSchhcsCjW3GRhgFWE5uRd1sbBDdG1UH7MljJJ5BHgQqXWB0dKDqM+XdjYgZnyzvrLPoPXDVkCzdQb1fSDlWA1ypNY1/azENnazEZ+gGMhLY22xTeo1AolkbSlGDHixQyeRwmXLdgZx0c+Q3m0SGjZUiuR2e28BPHaF1NhQLC/sjxjalCKS79QjBhFFDwKRhEWhfgTBoj/pDM8MI3WWbhclvf39hkFdXorklw1QG6F72C8DsLYpjep6u8y+hhES/B2ev9BsektBTzfABZFcC6txGMtztNndqpOCLDdroaCsHgzi5PtBrL6K2Wvb04qRmmH6vMl+9pC8huKniRLJN0ichFkDOofOLyf3kmUXAHR1rfpIt1BHaSUtqjxdm0FYY9Jg/PPDyPSJvFidaQOHRR4fBwsj9fvQfK1NP4ckrj6p/uLC84FIP7WHjXV2X0PyGiLkthGojXhXaNO3BlitxOIPo6HW6kGAmqklVSAh6sLMAZdqWE721ho/+TjK6sH+QNM7TKLkBLDNolDTikKJegSCz6W/voZMOczg9KWcemDUyVuFTx/hM3m2Ng3fBjmr4Bsnk8dAgIKSqEXlSD1Hz9NGyqiiPwADtjiQfoZUHXwMMhBSGxv1yI/kK2FUeRpmDewyxC7ERhsYQFTYvAAmNH8ocs3A0RvoICbHydUgHhHBpK/CCl0U8nTcQ4/ZEeI2e+6gK4NPnHwWGpxIvYyd6PU8iPRyehtPSrQq9lQ1MqFAAcRIh0+F2CIRAqwQLAvfHan5TgyBQ6FuoWcN21S7S/Fdwm2LLGxYj+JLOvYeXWxiMzNIa97YwgMhAOcAsXcLMwsSWF0vYKRWB7F6BBJY1lpc87tE8m2bLQ5bgtCLB5H8AgjRV6TF4l/pKAp1RWbjAr681lXPwwfCwhCp68fJD8NIjrN3JNLzKA3LlSfMYGgdXyNQ7FTrG9ATbA/ettlT29JDMyo11UP6wiGb5LtBJD9n+9DtvrPX2PxABGzGKrPthu09LL8wv2v/eaS2fY67RiC5CYdsYMENhZoINoe9WwCX9vE2Ak/7+GNFG+kaKqSN2g/7fC1dxcnRUBRhAMQ5EJolDdKNZofLgjBSs/SXQ2G8TBXUmzV71ISVy6GEDnuA/xwAQBuHIRKmEJjXtQU4UklWqWxAsJT91dnM/ef4ba0+LAQgfcEAWYp7/wESGMwq6VdA1eXajiXkTdgYlz3YY3XRumwh0EKghUALgRYCLQRaCLQQaCHQQqCFQAuBFgItBFoI/AkI/D8Kccg2XEL76AAAAABJRU5ErkJggg==;imageBackground=none;shadow=0;" parent="1" vertex="1">
          <mxGeometry x="199" y="60" width="70" height="70" as="geometry" />
        </mxCell>
        <mxCell id="mjdIlc3A8C2LFw_ec-ra-58" value="SQL Server" style="text;html=1;align=left;verticalAlign=middle;whiteSpace=wrap;rounded=0;fillColor=none;shadow=0;" parent="1" vertex="1">
          <mxGeometry x="244" y="86" width="80" height="31" as="geometry" />
        </mxCell>
        <mxCell id="vqZ_BC1BcSBBk9a7v_CW-3" value="" style="outlineConnect=0;dashed=0;verticalLabelPosition=bottom;verticalAlign=top;align=center;html=1;fontSize=12;fontStyle=0;aspect=fixed;pointerEvents=1;shape=mxgraph.aws4.opensearch_dashboards;fillColor=#1ba1e2;fontColor=#ffffff;strokeColor=#006EAF;shadow=1;" vertex="1" parent="1">
          <mxGeometry x="1032" y="169" width="78" height="59" as="geometry" />
        </mxCell>
      </root>
    </mxGraphModel>
  </diagram>
</mxfile>
